<?xml version="1.0" standalone="no"?>
<!DOCTYPE svg PUBLIC "-//W3C//DTD SVG 20010904//EN"
 "http://www.w3.org/TR/2001/REC-SVG-20010904/DTD/svg10.dtd">
<svg version="1.0" xmlns="http://www.w3.org/2000/svg"
 width="450.000000pt" height="450.000000pt" viewBox="0 0 450.000000 450.000000"
 preserveAspectRatio="xMidYMid meet">
<metadata>
Created by potrace 1.10, written by Peter Selinger 2001-2011
</metadata>
<g transform="translate(0.000000,450.000000) scale(0.050000,-0.050000)"
fill="#000000" stroke="none">
<path d="M4080 8580 c-39 -39 -40 -67 -40 -1110 0 -946 -4 -1070 -30 -1070
-17 0 -82 -18 -145 -40 -62 -22 -114 -40 -114 -40 -1 0 2 391 6 868 6 858 6
869 -35 910 -50 50 -154 55 -218 11 l-44 -31 0 -954 0 -954 -95 -59 c-120 -75
-419 -375 -485 -486 l-50 -84 -952 0 c-1039 -1 -990 4 -1026 -113 -14 -48 18
-149 54 -172 13 -9 416 -16 895 -16 l871 0 -49 -150 -49 -150 -1076 0 c-1204
0 -1118 11 -1118 -140 0 -151 -84 -140 1097 -140 l1057 0 -2 -150 -1 -150
-1042 0 c-1176 0 -1109 9 -1109 -153 0 -156 -60 -148 1132 -146 l1058 1 45
-126 c25 -69 48 -134 50 -143 3 -9 -387 -15 -866 -14 -817 3 -873 1 -902 -33
-48 -55 -58 -126 -27 -199 l28 -67 958 0 958 0 81 -116 c94 -133 364 -398 484
-473 l81 -52 0 -959 c0 -1081 -12 -1001 155 -1006 152 -4 149 -20 142 961 -6
763 -3 864 23 852 36 -15 200 -71 235 -80 20 -4 25 -236 25 -1073 0 -1204 -9
-1134 153 -1134 155 0 147 -58 147 1113 l0 1040 150 0 151 0 -1 -1051 c-1
-1172 -10 -1102 135 -1102 157 0 145 -89 145 1118 l0 1076 150 49 150 49 0
-885 c0 -998 -11 -931 154 -931 153 0 146 -46 147 1022 l0 952 83 50 c113 67
413 367 487 485 l59 95 954 0 954 0 31 44 c44 64 39 168 -10 217 -41 41 -55
42 -911 35 -573 -4 -867 1 -863 14 4 11 24 76 46 145 l39 125 1065 0 c1038 0
1066 1 1105 40 48 48 53 153 9 216 l-31 44 -1049 0 -1049 0 0 150 0 150 1049
0 1049 0 31 44 c41 59 39 141 -4 194 -35 42 -42 42 -1102 47 l-1068 5 -35 110
c-19 61 -42 126 -50 145 -13 33 35 35 867 35 l881 0 31 44 c44 63 39 168 -9
216 -40 40 -64 41 -984 40 l-944 -2 -93 126 c-108 145 -331 364 -454 445 l-85
56 0 948 c0 920 -1 948 -40 987 -48 48 -153 53 -216 9 l-44 -31 0 -881 c0
-832 -2 -880 -35 -867 -19 8 -84 31 -145 50 l-110 35 -5 1068 c-5 1192 2 1137
-145 1137 -31 0 -75 -16 -99 -35 l-43 -35 2 -1045 1 -1045 -151 0 -150 0 0
1049 0 1049 -44 31 c-63 44 -168 39 -216 -9z m820 -2462 c1226 -308 1663
-1852 783 -2765 -707 -731 -1898 -669 -2509 131 -963 1262 189 3020 1726 2634z"/>
<path d="M5249 5059 c-185 -45 -299 -219 -251 -381 40 -134 147 -199 454 -277
178 -45 242 -168 141 -270 -120 -120 -325 -73 -413 95 -86 165 -244 136 -211
-38 62 -332 701 -397 861 -88 124 241 -5 416 -380 519 -253 69 -331 167 -201
252 129 85 264 51 358 -87 110 -165 277 -63 182 112 -75 140 -324 215 -540
163z"/>
<path d="M3134 5025 c-43 -48 -53 -1038 -10 -1081 32 -32 593 -33 700 -1 262
79 288 467 37 547 -36 11 -33 19 39 88 135 128 98 357 -71 442 -100 51 -650
54 -695 5z m398 -145 c169 0 228 -36 228 -138 0 -117 -55 -151 -258 -159
l-182 -7 0 164 c0 142 4 163 32 152 17 -7 98 -12 180 -12z m226 -508 c46 -42
57 -147 22 -212 -28 -51 -140 -80 -315 -80 l-145 0 0 172 0 172 198 -7 c160
-6 206 -14 240 -45z"/>
<path d="M4044 5036 c-98 -98 12 -187 211 -169 l125 11 0 -456 c0 -500 5 -522
124 -522 90 0 95 26 101 511 l5 457 152 1 c200 1 278 68 187 160 -41 40 -865
47 -905 7z"/>
</g>
</svg>
